<svg width="63" height="63" viewBox="0 0 63 63" fill="none" xmlns="http://www.w3.org/2000/svg">
<path d="M57.0938 9.90528H43.0172C39.9964 9.90528 37.0433 10.7728 34.5023 12.4093L31.5 14.335L28.4977 12.4093C25.9593 10.7731 23.0028 9.90366 19.9828 9.90528H5.90625C4.81729 9.90528 3.9375 10.7851 3.9375 11.874V46.8193C3.9375 47.9083 4.81729 48.7881 5.90625 48.7881H19.9828C23.0036 48.7881 25.9567 49.6556 28.4977 51.2921L31.2293 53.0517C31.3093 53.1009 31.4016 53.1316 31.4938 53.1316C31.5861 53.1316 31.6784 53.107 31.7584 53.0517L34.49 51.2921C37.0371 49.6556 39.9964 48.7881 43.0172 48.7881H57.0938C58.1827 48.7881 59.0625 47.9083 59.0625 46.8193V11.874C59.0625 10.7851 58.1827 9.90528 57.0938 9.90528ZM19.9828 44.3584H8.36719V14.335H19.9828C22.1607 14.335 24.2771 14.9564 26.1044 16.1314L29.1067 18.0571L29.5312 18.334V46.7578C26.6027 45.1828 23.3297 44.3584 19.9828 44.3584ZM54.6328 44.3584H43.0172C39.6703 44.3584 36.3973 45.1828 33.4688 46.7578V18.334L33.8933 18.0571L36.8956 16.1314C38.7229 14.9564 40.8393 14.335 43.0172 14.335H54.6328V44.3584ZM24.4187 22.21H12.9876C12.7477 22.21 12.5508 22.4191 12.5508 22.6714V25.4399C12.5508 25.6922 12.7477 25.9014 12.9876 25.9014H24.4125C24.6524 25.9014 24.8493 25.6922 24.8493 25.4399V22.6714C24.8555 22.4191 24.6586 22.21 24.4187 22.21ZM38.1445 22.6714V25.4399C38.1445 25.6922 38.3414 25.9014 38.5813 25.9014H50.0062C50.2462 25.9014 50.4431 25.6922 50.4431 25.4399V22.6714C50.4431 22.4191 50.2462 22.21 50.0062 22.21H38.5813C38.3414 22.21 38.1445 22.4191 38.1445 22.6714ZM24.4187 30.8232H12.9876C12.7477 30.8232 12.5508 31.0324 12.5508 31.2847V34.0532C12.5508 34.3055 12.7477 34.5146 12.9876 34.5146H24.4125C24.6524 34.5146 24.8493 34.3055 24.8493 34.0532V31.2847C24.8555 31.0324 24.6586 30.8232 24.4187 30.8232ZM50.0124 30.8232H38.5813C38.3414 30.8232 38.1445 31.0324 38.1445 31.2847V34.0532C38.1445 34.3055 38.3414 34.5146 38.5813 34.5146H50.0062C50.2462 34.5146 50.4431 34.3055 50.4431 34.0532V31.2847C50.4492 31.0324 50.2523 30.8232 50.0124 30.8232Z" fill="#736549"/>
</svg>
