<svg width="25" height="25" viewBox="0 0 25 25" fill="none" xmlns="http://www.w3.org/2000/svg">
<path d="M17.3611 2.77783H7.63889C7.27053 2.77783 6.91726 2.92416 6.6568 3.18463C6.39633 3.4451 6.25 3.79836 6.25 4.16672V20.8334C6.25 21.2017 6.39633 21.555 6.6568 21.8155C6.91726 22.0759 7.27053 22.2223 7.63889 22.2223H17.3611C17.7295 22.2223 18.0827 22.0759 18.3432 21.8155C18.6037 21.555 18.75 21.2017 18.75 20.8334V4.16672C18.75 3.79836 18.6037 3.4451 18.3432 3.18463C18.0827 2.92416 17.7295 2.77783 17.3611 2.77783ZM7.63889 4.16672H17.3611V16.6667H7.63889V4.16672ZM7.63889 20.8334V18.0556H17.3611V20.8334H7.63889Z" fill="#BABABA"/>
<path d="M11.8057 18.75H13.1946V20.1389H11.8057V18.75Z" fill="#BABABA"/>
</svg>
