<svg width="40" height="53" viewBox="0 0 40 53" fill="none" xmlns="http://www.w3.org/2000/svg">
<path d="M23.3333 14.0781V0H2.5C1.11458 0 0 1.10762 0 2.48438V50.5156C0 51.8924 1.11458 53 2.5 53H37.5C38.8854 53 40 51.8924 40 50.5156V16.5625H25.8333C24.4583 16.5625 23.3333 15.4445 23.3333 14.0781ZM31.2969 35.9572L21.2531 45.8636C20.5604 46.5479 19.4417 46.5479 18.749 45.8636L8.70521 35.9572C7.64792 34.9148 8.38958 33.125 9.87708 33.125H16.6667V24.8438C16.6667 23.9287 17.4125 23.1875 18.3333 23.1875H21.6667C22.5875 23.1875 23.3333 23.9287 23.3333 24.8438V33.125H30.1229C31.6104 33.125 32.3521 34.9148 31.2969 35.9572ZM39.2708 10.8691L29.0729 0.724609C28.6042 0.258789 27.9688 0 27.3021 0H26.6667V13.25H40V12.6186C40 11.9664 39.7396 11.335 39.2708 10.8691Z" fill="#736549"/>
</svg>
