<svg width="61" height="61" viewBox="0 0 61 61" fill="none" xmlns="http://www.w3.org/2000/svg">
<path d="M30.2712 35.5834H50.2055C51.7222 35.5834 53.1768 36.1859 54.2493 37.2583C55.3217 38.3308 55.9242 39.7854 55.9242 41.3021V43.6023C55.9242 44.9758 55.6274 46.333 55.054 47.5811C54.4806 48.8292 53.6443 49.9386 52.6023 50.8334C48.622 54.2519 42.9287 55.9218 35.5833 55.9218H35.1283C35.5112 55.1499 35.6619 54.2836 35.5622 53.4277C35.4625 52.5719 35.1167 51.7634 34.5666 51.1002L34.2845 50.7927L28.6166 45.14C30.2939 42.2551 30.8802 38.864 30.2687 35.5834H30.2712ZM16.5208 26.6875C18.6936 26.6876 20.8213 27.3066 22.6551 28.472C24.4889 29.6374 25.9528 31.3011 26.8754 33.2682C27.798 35.2354 28.1413 37.4246 27.8649 39.5798C27.5886 41.7349 26.7041 43.7667 25.315 45.4374L32.4901 52.5897C32.8288 52.9298 33.0268 53.3853 33.0444 53.8651C33.0619 54.3448 32.8978 54.8135 32.5848 55.1776C32.2718 55.5416 31.833 55.7741 31.356 55.8287C30.8791 55.8833 30.3991 55.7558 30.0119 55.4719L29.7959 55.2889L22.4174 47.9282C20.9067 48.8362 19.2065 49.3828 17.4496 49.5252C15.6927 49.6675 13.9267 49.4019 12.2894 48.7491C10.6521 48.0962 9.18785 47.0738 8.01097 45.7616C6.8341 44.4494 5.97643 42.8829 5.50493 41.1845C5.03343 39.4861 4.96086 37.7017 5.29288 35.9706C5.6249 34.2395 6.35254 32.6086 7.41897 31.2051C8.48541 29.8017 9.86178 28.6637 11.4406 27.8801C13.0195 27.0964 14.7581 26.6883 16.5208 26.6875ZM16.5208 30.5C14.4985 30.5 12.5591 31.3034 11.1291 32.7333C9.69913 34.1633 8.89578 36.1028 8.89578 38.125C8.89578 40.1473 9.69913 42.0868 11.1291 43.5167C12.5591 44.9467 14.4985 45.75 16.5208 45.75C18.5431 45.75 20.4825 44.9467 21.9125 43.5167C23.3424 42.0868 24.1458 40.1473 24.1458 38.125C24.1458 36.1028 23.3424 34.1633 21.9125 32.7333C20.4825 31.3034 18.5431 30.5 16.5208 30.5ZM35.5833 5.09607C37.2522 5.09607 38.9047 5.42478 40.4465 6.06343C41.9884 6.70209 43.3894 7.63818 44.5694 8.81825C45.7495 9.99833 46.6856 11.3993 47.3242 12.9411C47.9629 14.483 48.2916 16.1355 48.2916 17.8044C48.2916 19.4733 47.9629 21.1258 47.3242 22.6677C46.6856 24.2095 45.7495 25.6105 44.5694 26.7906C43.3894 27.9706 41.9884 28.9067 40.4465 29.5454C38.9047 30.184 37.2522 30.5127 35.5833 30.5127C32.2128 30.5127 28.9804 29.1738 26.5971 26.7906C24.2139 24.4073 22.875 21.1749 22.875 17.8044C22.875 14.4339 24.2139 11.2015 26.5971 8.81825C28.9804 6.43498 32.2128 5.09607 35.5833 5.09607Z" fill="#736549"/>
</svg>
